<svg width="87" height="95" viewBox="0 0 87 95" fill="none" xmlns="http://www.w3.org/2000/svg">
<g filter="url(#filter0_d_32_136)">
<path d="M72.5945 4.20077C72.5945 3.53761 73.1321 3 73.7953 3H80.7923C81.4555 3 81.9931 3.5376 81.9931 4.20077V89.3612C81.9931 89.4939 81.8856 89.6014 81.7529 89.6014H72.8346C72.702 89.6014 72.5945 89.4939 72.5945 89.3612V4.20077Z" fill="url(#paint0_linear_32_136)"/>
<path d="M72.7146 4.20077C72.7146 3.60392 73.1984 3.12008 73.7953 3.12008H80.7923C81.3892 3.12008 81.873 3.60392 81.873 4.20077V89.3612C81.873 89.4276 81.8192 89.4813 81.7529 89.4813H72.8346C72.7683 89.4813 72.7146 89.4276 72.7146 89.3612V4.20077Z" stroke="#123B7B" stroke-width="0.240155"/>
</g>
<g filter="url(#filter1_d_32_136)">
<path d="M55.1958 43.1383C55.1958 42.4751 55.7334 41.9375 56.3966 41.9375H63.3936C64.0568 41.9375 64.5944 42.4751 64.5944 43.1383V89.3617C64.5944 89.4943 64.4869 89.6018 64.3542 89.6018H55.436C55.3033 89.6018 55.1958 89.4943 55.1958 89.3617V43.1383Z" fill="url(#paint1_linear_32_136)"/>
<path d="M55.3159 43.1383C55.3159 42.5414 55.7997 42.0576 56.3966 42.0576H63.3936C63.9905 42.0576 64.4743 42.5414 64.4743 43.1383V89.3617C64.4743 89.428 64.4206 89.4818 64.3542 89.4818H55.436C55.3696 89.4818 55.3159 89.428 55.3159 89.3617V43.1383Z" stroke="#123B7B" stroke-width="0.240155"/>
</g>
<g filter="url(#filter2_d_32_136)">
<path d="M37.7972 66.9703C37.7972 66.3071 38.3348 65.7695 38.998 65.7695H45.9951C46.6582 65.7695 47.1958 66.3071 47.1958 66.9703V89.3615C47.1958 89.4942 47.0883 89.6017 46.9557 89.6017H38.0374C37.9048 89.6017 37.7972 89.4942 37.7972 89.3615V66.9703Z" fill="url(#paint2_linear_32_136)"/>
<path d="M37.9173 66.9703C37.9173 66.3735 38.4012 65.8896 38.998 65.8896H45.9951C46.5919 65.8896 47.0758 66.3735 47.0758 66.9703V89.3615C47.0758 89.4279 47.022 89.4816 46.9557 89.4816H38.0374C37.9711 89.4816 37.9173 89.4279 37.9173 89.3615V66.9703Z" stroke="#123B7B" stroke-width="0.240155"/>
</g>
<g filter="url(#filter3_d_32_136)">
<path d="M20.3987 54.2144C20.3987 53.5513 20.9363 53.0137 21.5995 53.0137H28.5965C29.2597 53.0137 29.7973 53.5513 29.7973 54.2144V89.3609C29.7973 89.4936 29.6898 89.6011 29.5571 89.6011H20.6388C20.5062 89.6011 20.3987 89.4936 20.3987 89.3609V54.2144Z" fill="url(#paint3_linear_32_136)"/>
<path d="M20.5188 54.2144C20.5188 53.6176 21.0026 53.1337 21.5995 53.1337H28.5965C29.1934 53.1337 29.6772 53.6176 29.6772 54.2144V89.3609C29.6772 89.4272 29.6234 89.481 29.5571 89.481H20.6388C20.5725 89.481 20.5188 89.4272 20.5188 89.3609V54.2144Z" stroke="#123B7B" stroke-width="0.240155"/>
</g>
<g filter="url(#filter4_d_32_136)">
<path d="M3 76.7047C3 76.0415 3.5376 75.5039 4.20077 75.5039H11.1978C11.861 75.5039 12.3986 76.0415 12.3986 76.7047V89.3617C12.3986 89.4943 12.2911 89.6018 12.1584 89.6018H3.24015C3.10752 89.6018 3 89.4943 3 89.3617V76.7047Z" fill="url(#paint4_linear_32_136)"/>
<path d="M3.12008 76.7047C3.12008 76.1078 3.60392 75.624 4.20077 75.624H11.1978C11.7947 75.624 12.2785 76.1078 12.2785 76.7047V89.3617C12.2785 89.428 12.2248 89.4817 12.1584 89.4817H3.24015C3.17384 89.4817 3.12008 89.428 3.12008 89.3617V76.7047Z" stroke="#123B7B" stroke-width="0.240155"/>
</g>
<defs>
<filter id="filter0_d_32_136" x="69.7126" y="0.838609" width="16.6032" height="93.8062" filterUnits="userSpaceOnUse" color-interpolation-filters="sRGB">
<feFlood flood-opacity="0" result="BackgroundImageFix"/>
<feColorMatrix in="SourceAlpha" type="matrix" values="0 0 0 0 0 0 0 0 0 0 0 0 0 0 0 0 0 0 127 0" result="hardAlpha"/>
<feOffset dx="0.720464" dy="1.44093"/>
<feGaussianBlur stdDeviation="1.80116"/>
<feComposite in2="hardAlpha" operator="out"/>
<feColorMatrix type="matrix" values="0 0 0 0 0.462745 0 0 0 0 0.556863 0 0 0 0 0.690196 0 0 0 0.25 0"/>
<feBlend mode="normal" in2="BackgroundImageFix" result="effect1_dropShadow_32_136"/>
<feBlend mode="normal" in="SourceGraphic" in2="effect1_dropShadow_32_136" result="shape"/>
</filter>
<filter id="filter1_d_32_136" x="52.3139" y="39.7761" width="16.6032" height="54.8687" filterUnits="userSpaceOnUse" color-interpolation-filters="sRGB">
<feFlood flood-opacity="0" result="BackgroundImageFix"/>
<feColorMatrix in="SourceAlpha" type="matrix" values="0 0 0 0 0 0 0 0 0 0 0 0 0 0 0 0 0 0 127 0" result="hardAlpha"/>
<feOffset dx="0.720464" dy="1.44093"/>
<feGaussianBlur stdDeviation="1.80116"/>
<feComposite in2="hardAlpha" operator="out"/>
<feColorMatrix type="matrix" values="0 0 0 0 0.462745 0 0 0 0 0.556863 0 0 0 0 0.690196 0 0 0 0.25 0"/>
<feBlend mode="normal" in2="BackgroundImageFix" result="effect1_dropShadow_32_136"/>
<feBlend mode="normal" in="SourceGraphic" in2="effect1_dropShadow_32_136" result="shape"/>
</filter>
<filter id="filter2_d_32_136" x="34.9154" y="63.6081" width="16.6032" height="31.0367" filterUnits="userSpaceOnUse" color-interpolation-filters="sRGB">
<feFlood flood-opacity="0" result="BackgroundImageFix"/>
<feColorMatrix in="SourceAlpha" type="matrix" values="0 0 0 0 0 0 0 0 0 0 0 0 0 0 0 0 0 0 127 0" result="hardAlpha"/>
<feOffset dx="0.720464" dy="1.44093"/>
<feGaussianBlur stdDeviation="1.80116"/>
<feComposite in2="hardAlpha" operator="out"/>
<feColorMatrix type="matrix" values="0 0 0 0 0.462745 0 0 0 0 0.556863 0 0 0 0 0.690196 0 0 0 0.25 0"/>
<feBlend mode="normal" in2="BackgroundImageFix" result="effect1_dropShadow_32_136"/>
<feBlend mode="normal" in="SourceGraphic" in2="effect1_dropShadow_32_136" result="shape"/>
</filter>
<filter id="filter3_d_32_136" x="17.5168" y="50.8523" width="16.6032" height="43.7925" filterUnits="userSpaceOnUse" color-interpolation-filters="sRGB">
<feFlood flood-opacity="0" result="BackgroundImageFix"/>
<feColorMatrix in="SourceAlpha" type="matrix" values="0 0 0 0 0 0 0 0 0 0 0 0 0 0 0 0 0 0 127 0" result="hardAlpha"/>
<feOffset dx="0.720464" dy="1.44093"/>
<feGaussianBlur stdDeviation="1.80116"/>
<feComposite in2="hardAlpha" operator="out"/>
<feColorMatrix type="matrix" values="0 0 0 0 0.462745 0 0 0 0 0.556863 0 0 0 0 0.690196 0 0 0 0.25 0"/>
<feBlend mode="normal" in2="BackgroundImageFix" result="effect1_dropShadow_32_136"/>
<feBlend mode="normal" in="SourceGraphic" in2="effect1_dropShadow_32_136" result="shape"/>
</filter>
<filter id="filter4_d_32_136" x="0.118145" y="73.3425" width="16.6032" height="21.3023" filterUnits="userSpaceOnUse" color-interpolation-filters="sRGB">
<feFlood flood-opacity="0" result="BackgroundImageFix"/>
<feColorMatrix in="SourceAlpha" type="matrix" values="0 0 0 0 0 0 0 0 0 0 0 0 0 0 0 0 0 0 127 0" result="hardAlpha"/>
<feOffset dx="0.720464" dy="1.44093"/>
<feGaussianBlur stdDeviation="1.80116"/>
<feComposite in2="hardAlpha" operator="out"/>
<feColorMatrix type="matrix" values="0 0 0 0 0.462745 0 0 0 0 0.556863 0 0 0 0 0.690196 0 0 0 0.25 0"/>
<feBlend mode="normal" in2="BackgroundImageFix" result="effect1_dropShadow_32_136"/>
<feBlend mode="normal" in="SourceGraphic" in2="effect1_dropShadow_32_136" result="shape"/>
</filter>
<linearGradient id="paint0_linear_32_136" x1="77.2938" y1="3" x2="77.2938" y2="89.6014" gradientUnits="userSpaceOnUse">
<stop stop-color="#0A3B87"/>
<stop offset="1" stop-color="#4178CC"/>
</linearGradient>
<linearGradient id="paint1_linear_32_136" x1="59.8951" y1="41.9375" x2="59.8951" y2="89.6018" gradientUnits="userSpaceOnUse">
<stop stop-color="#5377AF"/>
<stop offset="1" stop-color="#0A3B87"/>
</linearGradient>
<linearGradient id="paint2_linear_32_136" x1="42.4965" y1="65.7695" x2="42.4965" y2="89.6017" gradientUnits="userSpaceOnUse">
<stop stop-color="#5377AF"/>
<stop offset="1" stop-color="#0A3B87"/>
</linearGradient>
<linearGradient id="paint3_linear_32_136" x1="25.098" y1="53.0137" x2="25.098" y2="89.6011" gradientUnits="userSpaceOnUse">
<stop stop-color="#5377AF"/>
<stop offset="1" stop-color="#0A3B87"/>
</linearGradient>
<linearGradient id="paint4_linear_32_136" x1="7.6993" y1="75.5039" x2="7.6993" y2="89.6018" gradientUnits="userSpaceOnUse">
<stop stop-color="#0A3B87"/>
<stop offset="1" stop-color="#5A8BD7"/>
</linearGradient>
</defs>
</svg>
